<mxfile host="app.diagrams.net" modified="2023-08-29T15:07:49.727Z" agent="Mozilla/5.0 (Windows NT 10.0; Win64; x64) AppleWebKit/537.36 (KHTML, like Gecko) Chrome/115.0.0.0 Safari/537.36 OPR/101.0.0.0" etag="YHT_bgOMToaJsSzC_eYI" version="21.6.9" type="github">
  <diagram id="C5RBs43oDa-KdzZeNtuy" name="Page-1">
    <mxGraphModel dx="4262" dy="1943" grid="1" gridSize="10" guides="1" tooltips="1" connect="1" arrows="1" fold="1" page="1" pageScale="1" pageWidth="827" pageHeight="1169" math="0" shadow="0">
      <root>
        <mxCell id="WIyWlLk6GJQsqaUBKTNV-0" />
        <mxCell id="WIyWlLk6GJQsqaUBKTNV-1" parent="WIyWlLk6GJQsqaUBKTNV-0" />
        <mxCell id="kHaYimWGmzNnGJCPvtg9-30" value="" style="rounded=1;whiteSpace=wrap;html=1;" vertex="1" parent="WIyWlLk6GJQsqaUBKTNV-1">
          <mxGeometry x="930" y="170" width="750" height="150" as="geometry" />
        </mxCell>
        <mxCell id="MD7UHL0Xo0C_XkCfp43g-0" value="" style="rounded=0;whiteSpace=wrap;html=1;" parent="WIyWlLk6GJQsqaUBKTNV-1" vertex="1">
          <mxGeometry y="20" width="830" height="1170" as="geometry" />
        </mxCell>
        <mxCell id="MD7UHL0Xo0C_XkCfp43g-8" value="" style="line;strokeWidth=2;html=1;" parent="WIyWlLk6GJQsqaUBKTNV-1" vertex="1">
          <mxGeometry y="110" width="830" height="10" as="geometry" />
        </mxCell>
        <mxCell id="MD7UHL0Xo0C_XkCfp43g-9" value="APP" style="text;html=1;strokeColor=none;fillColor=none;align=center;verticalAlign=middle;whiteSpace=wrap;rounded=0;fontSize=38;" parent="WIyWlLk6GJQsqaUBKTNV-1" vertex="1">
          <mxGeometry x="20" y="37.5" width="130" height="60" as="geometry" />
        </mxCell>
        <mxCell id="MD7UHL0Xo0C_XkCfp43g-10" value="" style="line;strokeWidth=4;direction=south;html=1;perimeter=backbonePerimeter;points=[];outlineConnect=0;" parent="WIyWlLk6GJQsqaUBKTNV-1" vertex="1">
          <mxGeometry x="660" y="30" width="10" height="75" as="geometry" />
        </mxCell>
        <mxCell id="MD7UHL0Xo0C_XkCfp43g-11" value="" style="line;strokeWidth=4;direction=south;html=1;perimeter=backbonePerimeter;points=[];outlineConnect=0;" parent="WIyWlLk6GJQsqaUBKTNV-1" vertex="1">
          <mxGeometry x="500" y="30" width="10" height="70" as="geometry" />
        </mxCell>
        <mxCell id="MD7UHL0Xo0C_XkCfp43g-12" value="&lt;ul style=&quot;display: flex; list-style: none; gap: 1rem; font-family: &amp;quot;Times New Roman&amp;quot;; font-size: medium; text-align: start;&quot; class=&quot;nav&quot;&gt;&lt;li&gt;All products&lt;/li&gt;&lt;li&gt;&lt;br&gt;&lt;/li&gt;&lt;/ul&gt;" style="text;strokeColor=none;fillColor=none;html=1;fontSize=24;fontStyle=1;verticalAlign=middle;align=center;" parent="WIyWlLk6GJQsqaUBKTNV-1" vertex="1">
          <mxGeometry x="520" y="47.5" width="100" height="40" as="geometry" />
        </mxCell>
        <mxCell id="MD7UHL0Xo0C_XkCfp43g-13" value="Add position" style="text;strokeColor=none;fillColor=none;html=1;fontSize=18;fontStyle=1;verticalAlign=middle;align=center;" parent="WIyWlLk6GJQsqaUBKTNV-1" vertex="1">
          <mxGeometry x="700" y="50" width="100" height="40" as="geometry" />
        </mxCell>
        <mxCell id="MD7UHL0Xo0C_XkCfp43g-14" value="" style="rounded=1;whiteSpace=wrap;html=1;" parent="WIyWlLk6GJQsqaUBKTNV-1" vertex="1">
          <mxGeometry x="40" y="170" width="750" height="150" as="geometry" />
        </mxCell>
        <mxCell id="MD7UHL0Xo0C_XkCfp43g-15" value="" style="rounded=1;whiteSpace=wrap;html=1;" parent="WIyWlLk6GJQsqaUBKTNV-1" vertex="1">
          <mxGeometry x="40" y="360" width="750" height="150" as="geometry" />
        </mxCell>
        <mxCell id="MD7UHL0Xo0C_XkCfp43g-16" value="" style="rounded=1;whiteSpace=wrap;html=1;" parent="WIyWlLk6GJQsqaUBKTNV-1" vertex="1">
          <mxGeometry x="40" y="540" width="750" height="150" as="geometry" />
        </mxCell>
        <mxCell id="MD7UHL0Xo0C_XkCfp43g-17" value="" style="rounded=1;whiteSpace=wrap;html=1;" parent="WIyWlLk6GJQsqaUBKTNV-1" vertex="1">
          <mxGeometry x="40" y="730" width="750" height="150" as="geometry" />
        </mxCell>
        <mxCell id="MD7UHL0Xo0C_XkCfp43g-18" value="" style="rounded=1;whiteSpace=wrap;html=1;" parent="WIyWlLk6GJQsqaUBKTNV-1" vertex="1">
          <mxGeometry x="40" y="930" width="750" height="150" as="geometry" />
        </mxCell>
        <mxCell id="MD7UHL0Xo0C_XkCfp43g-19" value="" style="rounded=1;whiteSpace=wrap;html=1;" parent="WIyWlLk6GJQsqaUBKTNV-1" vertex="1">
          <mxGeometry x="60" y="190" width="140" height="110" as="geometry" />
        </mxCell>
        <mxCell id="MD7UHL0Xo0C_XkCfp43g-20" value="" style="rounded=1;whiteSpace=wrap;html=1;" parent="WIyWlLk6GJQsqaUBKTNV-1" vertex="1">
          <mxGeometry x="60" y="380" width="140" height="110" as="geometry" />
        </mxCell>
        <mxCell id="MD7UHL0Xo0C_XkCfp43g-21" value="" style="rounded=1;whiteSpace=wrap;html=1;" parent="WIyWlLk6GJQsqaUBKTNV-1" vertex="1">
          <mxGeometry x="60" y="560" width="140" height="110" as="geometry" />
        </mxCell>
        <mxCell id="MD7UHL0Xo0C_XkCfp43g-22" value="" style="rounded=1;whiteSpace=wrap;html=1;" parent="WIyWlLk6GJQsqaUBKTNV-1" vertex="1">
          <mxGeometry x="60" y="750" width="140" height="110" as="geometry" />
        </mxCell>
        <mxCell id="kHaYimWGmzNnGJCPvtg9-0" value="Title" style="text;strokeColor=none;fillColor=none;html=1;fontSize=24;fontStyle=1;verticalAlign=middle;align=center;" vertex="1" parent="WIyWlLk6GJQsqaUBKTNV-1">
          <mxGeometry x="190" y="225" width="200" height="40" as="geometry" />
        </mxCell>
        <mxCell id="kHaYimWGmzNnGJCPvtg9-1" value="price" style="text;strokeColor=none;fillColor=none;html=1;fontSize=24;fontStyle=1;verticalAlign=middle;align=center;" vertex="1" parent="WIyWlLk6GJQsqaUBKTNV-1">
          <mxGeometry x="610" y="225" width="200" height="40" as="geometry" />
        </mxCell>
        <mxCell id="kHaYimWGmzNnGJCPvtg9-11" value="&lt;ul style=&quot;display: flex; list-style: none; gap: 1rem; font-family: &amp;quot;Times New Roman&amp;quot;; font-size: medium; text-align: start;&quot; class=&quot;nav&quot;&gt;&lt;li&gt;All products&lt;/li&gt;&lt;li&gt;&lt;br&gt;&lt;/li&gt;&lt;/ul&gt;" style="text;strokeColor=none;fillColor=none;html=1;fontSize=24;fontStyle=1;verticalAlign=middle;align=center;" vertex="1" parent="WIyWlLk6GJQsqaUBKTNV-1">
          <mxGeometry x="1410" y="47.5" width="100" height="40" as="geometry" />
        </mxCell>
        <mxCell id="kHaYimWGmzNnGJCPvtg9-12" value="" style="line;strokeWidth=4;direction=south;html=1;perimeter=backbonePerimeter;points=[];outlineConnect=0;" vertex="1" parent="WIyWlLk6GJQsqaUBKTNV-1">
          <mxGeometry x="1550" y="30" width="10" height="75" as="geometry" />
        </mxCell>
        <mxCell id="kHaYimWGmzNnGJCPvtg9-13" value="Add position" style="text;strokeColor=none;fillColor=none;html=1;fontSize=18;fontStyle=1;verticalAlign=middle;align=center;" vertex="1" parent="WIyWlLk6GJQsqaUBKTNV-1">
          <mxGeometry x="1590" y="50" width="100" height="40" as="geometry" />
        </mxCell>
        <mxCell id="kHaYimWGmzNnGJCPvtg9-15" value="" style="line;strokeWidth=2;html=1;" vertex="1" parent="WIyWlLk6GJQsqaUBKTNV-1">
          <mxGeometry x="890" y="110" width="830" height="10" as="geometry" />
        </mxCell>
        <mxCell id="kHaYimWGmzNnGJCPvtg9-14" value="" style="rounded=0;whiteSpace=wrap;html=1;" vertex="1" parent="WIyWlLk6GJQsqaUBKTNV-1">
          <mxGeometry x="890" y="20" width="830" height="1170" as="geometry" />
        </mxCell>
        <mxCell id="kHaYimWGmzNnGJCPvtg9-16" value="APP" style="text;html=1;strokeColor=none;fillColor=none;align=center;verticalAlign=middle;whiteSpace=wrap;rounded=0;fontSize=38;" vertex="1" parent="WIyWlLk6GJQsqaUBKTNV-1">
          <mxGeometry x="910" y="37.5" width="130" height="60" as="geometry" />
        </mxCell>
        <mxCell id="kHaYimWGmzNnGJCPvtg9-18" value="&lt;ul style=&quot;display: flex; list-style: none; gap: 1rem; font-family: &amp;quot;Times New Roman&amp;quot;; font-size: medium; text-align: start;&quot; class=&quot;nav&quot;&gt;&lt;li&gt;All products&lt;/li&gt;&lt;li&gt;&lt;br&gt;&lt;/li&gt;&lt;/ul&gt;" style="text;strokeColor=none;fillColor=none;html=1;fontSize=24;fontStyle=1;verticalAlign=middle;align=center;" vertex="1" parent="WIyWlLk6GJQsqaUBKTNV-1">
          <mxGeometry x="1410" y="48.75" width="100" height="40" as="geometry" />
        </mxCell>
        <mxCell id="kHaYimWGmzNnGJCPvtg9-19" value="Add position" style="text;strokeColor=none;fillColor=none;html=1;fontSize=18;fontStyle=1;verticalAlign=middle;align=center;" vertex="1" parent="WIyWlLk6GJQsqaUBKTNV-1">
          <mxGeometry x="1590" y="51.25" width="100" height="40" as="geometry" />
        </mxCell>
        <mxCell id="kHaYimWGmzNnGJCPvtg9-20" value="" style="line;strokeWidth=4;direction=south;html=1;perimeter=backbonePerimeter;points=[];outlineConnect=0;" vertex="1" parent="WIyWlLk6GJQsqaUBKTNV-1">
          <mxGeometry x="1400" y="31.25" width="10" height="70" as="geometry" />
        </mxCell>
        <mxCell id="kHaYimWGmzNnGJCPvtg9-21" value="" style="line;strokeWidth=4;direction=south;html=1;perimeter=backbonePerimeter;points=[];outlineConnect=0;" vertex="1" parent="WIyWlLk6GJQsqaUBKTNV-1">
          <mxGeometry x="1560" y="31.25" width="10" height="75" as="geometry" />
        </mxCell>
        <mxCell id="kHaYimWGmzNnGJCPvtg9-27" value="" style="rounded=1;whiteSpace=wrap;html=1;" vertex="1" parent="WIyWlLk6GJQsqaUBKTNV-1">
          <mxGeometry x="950" y="210" width="220" height="220" as="geometry" />
        </mxCell>
        <mxCell id="kHaYimWGmzNnGJCPvtg9-29" value="&lt;h1&gt;Heading&lt;/h1&gt;&lt;p&gt;Lorem ipsum dolor sit amet, consectetur adipisicing elit, sed do eiusmod tempor incididunt ut labore et dolore magna aliqua.&lt;/p&gt;orem ipsum dolor sit amet, consectetur adipisicing elit, sed do eiusmod tempor incididunt ut labore et doloreorem ipsum dolor sit amet, consectetur adipisicing elit, sed do eiusmod tempor incididunt ut labore et doloreorem ipsum dolor sit amet, consectetur adipisicing elit, sed do eiusmod tempor incididunt ut labore et doloreorem ipsum dolor sit amet, consectetur adipisicing elit, sed do eiusmod tempor incididunt ut labore et dolore" style="text;html=1;strokeColor=none;fillColor=none;spacing=5;spacingTop=-20;whiteSpace=wrap;overflow=hidden;rounded=0;" vertex="1" parent="WIyWlLk6GJQsqaUBKTNV-1">
          <mxGeometry x="1190" y="210" width="380" height="210" as="geometry" />
        </mxCell>
        <mxCell id="kHaYimWGmzNnGJCPvtg9-35" value="" style="line;strokeWidth=2;html=1;" vertex="1" parent="WIyWlLk6GJQsqaUBKTNV-1">
          <mxGeometry x="890" y="110" width="830" height="10" as="geometry" />
        </mxCell>
        <mxCell id="kHaYimWGmzNnGJCPvtg9-36" value="" style="rounded=0;whiteSpace=wrap;html=1;" vertex="1" parent="WIyWlLk6GJQsqaUBKTNV-1">
          <mxGeometry x="1790" y="20" width="830" height="1170" as="geometry" />
        </mxCell>
        <mxCell id="kHaYimWGmzNnGJCPvtg9-37" value="" style="line;strokeWidth=2;html=1;" vertex="1" parent="WIyWlLk6GJQsqaUBKTNV-1">
          <mxGeometry x="1790" y="110" width="830" height="10" as="geometry" />
        </mxCell>
        <mxCell id="kHaYimWGmzNnGJCPvtg9-38" value="APP" style="text;html=1;strokeColor=none;fillColor=none;align=center;verticalAlign=middle;whiteSpace=wrap;rounded=0;fontSize=38;" vertex="1" parent="WIyWlLk6GJQsqaUBKTNV-1">
          <mxGeometry x="1810" y="37.5" width="130" height="60" as="geometry" />
        </mxCell>
        <mxCell id="kHaYimWGmzNnGJCPvtg9-39" value="" style="line;strokeWidth=4;direction=south;html=1;perimeter=backbonePerimeter;points=[];outlineConnect=0;" vertex="1" parent="WIyWlLk6GJQsqaUBKTNV-1">
          <mxGeometry x="2450" y="30" width="10" height="75" as="geometry" />
        </mxCell>
        <mxCell id="kHaYimWGmzNnGJCPvtg9-40" value="" style="line;strokeWidth=4;direction=south;html=1;perimeter=backbonePerimeter;points=[];outlineConnect=0;" vertex="1" parent="WIyWlLk6GJQsqaUBKTNV-1">
          <mxGeometry x="2290" y="30" width="10" height="70" as="geometry" />
        </mxCell>
        <mxCell id="kHaYimWGmzNnGJCPvtg9-41" value="&lt;ul style=&quot;display: flex; list-style: none; gap: 1rem; font-family: &amp;quot;Times New Roman&amp;quot;; font-size: medium; text-align: start;&quot; class=&quot;nav&quot;&gt;&lt;li&gt;All products&lt;/li&gt;&lt;li&gt;&lt;br&gt;&lt;/li&gt;&lt;/ul&gt;" style="text;strokeColor=none;fillColor=none;html=1;fontSize=24;fontStyle=1;verticalAlign=middle;align=center;" vertex="1" parent="WIyWlLk6GJQsqaUBKTNV-1">
          <mxGeometry x="2310" y="47.5" width="100" height="40" as="geometry" />
        </mxCell>
        <mxCell id="kHaYimWGmzNnGJCPvtg9-42" value="Add position" style="text;strokeColor=none;fillColor=none;html=1;fontSize=18;fontStyle=1;verticalAlign=middle;align=center;" vertex="1" parent="WIyWlLk6GJQsqaUBKTNV-1">
          <mxGeometry x="2490" y="50" width="100" height="40" as="geometry" />
        </mxCell>
      </root>
    </mxGraphModel>
  </diagram>
</mxfile>
